<?xml version="1.0" encoding="UTF-8"?>
<svg id="Capa_2" data-name="Capa 2" xmlns="http://www.w3.org/2000/svg" viewBox="0 0 135 135">
  <defs>
    <style>
      .cls-1 {
        fill: #ff7548;
        fill-rule: evenodd;
      }
    </style>
  </defs>
  <g id="Graphic_Elements" data-name="Graphic Elements">
    <g>
      <polygon class="cls-1" points="67.53 68.03 40.29 39.3 96.27 39.3 67.53 68.03"/>
      <path class="cls-1" d="m72.97,73.9l29.25-29.24v50.25c0,.44-.36.79-.8.79H33.58c-.44,0-.79-.35-.79-.79v-51.9l29.15,30.75c1.44,1.52,3.39,2.37,5.49,2.4h.1c2.06,0,3.99-.8,5.44-2.26Z"/>
      <path class="cls-1" d="m67.5,0C30.22,0,0,30.22,0,67.5s30.22,67.5,67.5,67.5,67.5-30.22,67.5-67.5S104.78,0,67.5,0Zm42.72,94.91c0,4.85-3.95,8.79-8.8,8.79H33.58c-4.85,0-8.79-3.94-8.79-8.79v-54.82c0-4.85,3.94-8.79,8.79-8.79h67.84c4.85,0,8.8,3.94,8.8,8.79v54.82Z"/>
    </g>
  </g>
</svg>