<?xml version="1.0" encoding="UTF-8" standalone="no"?>
<!-- Created with Inkscape (http://www.inkscape.org/) -->

<svg
   width="379.409"
   height="98"
   viewBox="0 0 379.409 98"
   version="1.1"
   id="svg1"
   inkscape:version="1.2.2 (b0a8486, 2022-12-01)"
   sodipodi:docname="OD_logo_H.svg"
   xml:space="preserve"
   xmlns:inkscape="http://www.inkscape.org/namespaces/inkscape"
   xmlns:sodipodi="http://sodipodi.sourceforge.net/DTD/sodipodi-0.dtd"
   xmlns="http://www.w3.org/2000/svg"
   xmlns:svg="http://www.w3.org/2000/svg"><sodipodi:namedview
     id="namedview1"
     pagecolor="#ffffff"
     bordercolor="#eeeeee"
     borderopacity="1"
     inkscape:showpageshadow="0"
     inkscape:pageopacity="0"
     inkscape:pagecheckerboard="0"
     inkscape:deskcolor="#505050"
     inkscape:document-units="px"
     inkscape:zoom="2.6686459"
     inkscape:cx="45.90343"
     inkscape:cy="-42.530933"
     inkscape:current-layer="g183"
     showguides="true"
     inkscape:export-bgcolor="#ffffff00"
     showgrid="false"
     inkscape:window-width="1680"
     inkscape:window-height="926"
     inkscape:window-x="0"
     inkscape:window-y="0"
     inkscape:window-maximized="1"><sodipodi:guide
       position="-1148.3153,125.67678"
       orientation="0,-1"
       id="guide116"
       inkscape:locked="false" /><sodipodi:guide
       position="-649.23584,1207.931"
       orientation="0,-1"
       id="guide137"
       inkscape:locked="false" /><inkscape:page
       x="3.6715323e-07"
       y="-6.4257125e-07"
       width="379.40918"
       height="95.917336"
       id="page1"
       margin="0"
       bleed="0" /></sodipodi:namedview><defs
     id="defs1"><rect
       x="-104.40103"
       y="120.82292"
       width="319.64745"
       height="200.05757"
       id="rect6172" /><inkscape:path-effect
       effect="fillet_chamfer"
       id="path-effect185"
       is_visible="true"
       lpeversion="1"
       nodesatellites_param="F,0,0,1,0,1.6580768,0,1 @ F,0,0,1,0,0,0,1 @ F,0,0,1,0,0,0,1 @ F,0,0,1,0,0,0,1 @ F,0,0,1,0,0,0,1 @ F,0,0,1,0,0,0,1 @ F,0,0,1,0,0,0,1 @ F,0,0,1,0,0,0,1 @ F,0,0,1,0,0,0,1 @ F,0,0,1,0,0,0,1 @ F,0,0,1,0,0,0,1 @ F,0,0,1,0,0,0,1 @ F,0,0,1,0,0,0,1 @ F,0,0,1,0,0,0,1 @ F,0,0,1,0,0,0,1 @ F,0,0,1,0,0,0,1 @ F,0,0,1,0,0,0,1 @ F,0,0,1,0,0,0,1 @ F,0,0,1,0,0,0,1 @ F,0,0,1,0,0,0,1 @ F,0,0,1,0,0,0,1 @ F,0,0,1,0,0,0,1 @ F,0,0,1,0,0,0,1 @ F,0,0,1,0,0,0,1 @ F,0,0,1,0,0,0,1 @ F,0,0,1,0,0,0,1 @ F,0,0,1,0,0,0,1 @ F,0,0,1,0,0,0,1 @ F,0,0,1,0,0,0,1 @ F,0,0,1,0,0,0,1 @ F,0,0,1,0,0,0,1 @ F,0,0,1,0,0,0,1 @ F,0,0,1,0,0,0,1 @ F,0,0,1,0,0,0,1 @ F,0,0,1,0,0,0,1 @ F,0,0,1,0,0,0,1 @ F,0,0,1,0,0,0,1 @ F,0,0,1,0,0,0,1 @ F,0,0,1,0,0,0,1 @ F,0,0,1,0,0,0,1 @ F,0,0,1,0,0,0,1 @ F,0,0,1,0,0,0,1 @ F,0,0,1,0,0,0,1 @ F,0,0,1,0,0,0,1 @ F,0,0,1,0,0,0,1 @ F,0,0,1,0,0,0,1 @ F,0,0,1,0,0,0,1 @ F,0,0,1,0,0,0,1 @ F,0,0,1,0,0,0,1 @ F,0,0,1,0,0,0,1 @ F,0,0,1,0,0,0,1 @ F,0,0,1,0,0,0,1 @ F,0,0,1,0,0,0,1 @ F,0,0,1,0,0,0,1 @ F,0,0,1,0,0,0,1 @ F,0,0,1,0,0,0,1 @ F,0,0,1,0,0,0,1 @ F,0,0,1,0,0,0,1 @ F,0,0,1,0,0,0,1 @ F,0,0,1,0,0,0,1 @ F,0,0,1,0,0,0,1 @ F,0,0,1,0,0,0,1 @ F,0,0,1,0,0,0,1 @ F,0,0,1,0,0,0,1 @ F,0,0,1,0,0,0,1 @ F,0,0,1,0,0,0,1 @ F,0,0,1,0,0,0,1 @ F,0,0,1,0,0,0,1 @ F,0,0,1,0,0,0,1 @ F,0,0,1,0,0,0,1 @ F,0,0,1,0,0.94728536,0,1 @ F,0,0,1,0,0,0,1 @ F,0,0,1,0,0,0,1 @ F,0,0,1,0,0,0,1 @ F,0,0,1,0,0,0,1 @ F,0,0,1,0,0,0,1 @ F,0,0,1,0,0,0,1"
       radius="0"
       unit="px"
       method="auto"
       mode="F"
       chamfer_steps="1"
       flexible="false"
       use_knot_distance="true"
       apply_no_radius="true"
       apply_with_radius="true"
       only_selected="false"
       hide_knots="false" /></defs><g
     inkscape:label="Capa 1"
     inkscape:groupmode="layer"
     id="layer1"
     transform="translate(-7274.2358,-125.84832)"><g
       id="g184"
       transform="matrix(0.63719331,0,0,0.63719331,3200.8353,-70.810577)"><g
         aria-label="Designer"
         id="text167"
         style="font-size:40.2063px;line-height:1.2;font-family:Helsinki;-inkscape-font-specification:Helsinki;text-align:end;letter-spacing:11.8889px;text-anchor:end;fill:#ffa36a;stroke-width:5.299;stroke-linecap:round;stroke-linejoin:round"><path
           d="m 6741.2195,422.69658 q 4.664,0 8.0011,1.68866 3.3371,1.68867 5.1062,4.86497 1.7691,3.17629 1.7691,7.55878 0,4.34228 -1.7691,7.51858 -1.7691,3.13609 -5.1062,4.82475 -3.3371,1.64846 -8.0011,1.64846 h -8.3227 v -28.1042 z m 0,25.77224 q 5.8702,0 8.9258,-3.05568 3.0959,-3.09589 3.0959,-8.60415 0,-5.54847 -3.0959,-8.64435 -3.0556,-3.1361 -8.9258,-3.1361 h -5.5082 v 23.44028 z"
           style="font-weight:500;font-family:Poppins;-inkscape-font-specification:'Poppins Medium'"
           id="path431" /><path
           d="m 6793.0333,438.69869 q 0,1.44742 -0.081,2.21134 h -18.2134 q 0.1206,2.49279 1.2062,4.26187 1.0856,1.76908 2.8546,2.69382 1.7691,0.88454 3.8598,0.88454 2.7341,0 4.5836,-1.32681 1.8897,-1.32681 2.4927,-3.57836 h 2.9753 q -0.8041,3.21651 -3.4577,5.26703 -2.6134,2.01031 -6.5939,2.01031 -3.0958,0 -5.5484,-1.36701 -2.4526,-1.40722 -3.8598,-3.94022 -1.3671,-2.5732 -1.3671,-5.99074 0,-3.41753 1.3671,-5.99074 1.367,-2.5732 3.8196,-3.94021 2.4525,-1.36702 5.5886,-1.36702 3.1361,0 5.4681,1.36702 2.3722,1.36701 3.6186,3.69898 1.2866,2.29175 1.2866,5.1062 z m -2.8547,-0.0804 q 0.04,-2.45258 -1.0051,-4.18145 -1.0052,-1.72887 -2.7743,-2.61341 -1.7691,-0.88454 -3.8598,-0.88454 -3.1361,0 -5.3474,2.01031 -2.2114,2.01032 -2.4526,5.66909 z"
           style="font-weight:500;font-family:Poppins;-inkscape-font-specification:'Poppins Medium'"
           id="path428" /><path
           d="m 6817.6273,451.12243 q -3.7793,0 -6.1917,-1.72887 -2.3722,-1.76908 -2.6536,-4.78455 h 2.8948 q 0.201,1.84949 1.7289,3.01547 1.568,1.12578 4.1814,1.12578 2.2918,0 3.5784,-1.08557 1.3268,-1.08557 1.3268,-2.69382 0,-1.12578 -0.7237,-1.84949 -0.7237,-0.72372 -1.8495,-1.12578 -1.0856,-0.44227 -2.9753,-0.92474 -2.4525,-0.6433 -3.9804,-1.2866 -1.5278,-0.64331 -2.6134,-1.8897 -1.0454,-1.2866 -1.0454,-3.41754 0,-1.60825 0.965,-2.97526 0.9649,-1.36702 2.734,-2.17114 1.7691,-0.80413 4.0206,-0.80413 3.5382,0 5.7093,1.80929 2.1712,1.76907 2.332,4.90516 h -2.8144 q -0.1207,-1.9299 -1.5279,-3.09588 -1.367,-1.20619 -3.7794,-1.20619 -2.1309,0 -3.4577,1.00516 -1.3268,1.00515 -1.3268,2.49279 0,1.2866 0.7639,2.13093 0.8041,0.80413 1.9701,1.2866 1.166,0.44227 3.1361,1.00516 2.3722,0.6433 3.7794,1.2464 1.4072,0.60309 2.4124,1.76907 1.0051,1.16599 1.0453,3.09589 0,1.76908 -0.9649,3.1763 -0.965,1.36701 -2.6938,2.17114 -1.7289,0.80412 -3.9805,0.80412 z"
           style="font-weight:500;font-family:Poppins;-inkscape-font-specification:'Poppins Medium'"
           id="path425" /><path
           d="m 6843.8698,424.70689 q -0.8443,0 -1.4474,-0.60309 -0.6031,-0.6031 -0.6031,-1.48763 0,-0.88454 0.6031,-1.44743 0.6031,-0.6031 1.4474,-0.6031 0.8444,0 1.4475,0.6031 0.603,0.56289 0.603,1.44743 0,0.88453 -0.603,1.48763 -0.6031,0.60309 -1.4475,0.60309 z m 1.4072,4.14125 v 21.95264 h -2.8144 v -21.95264 z"
           style="font-weight:500;font-family:Poppins;-inkscape-font-specification:'Poppins Medium'"
           id="path422" /><path
           d="m 6872.7659,428.52649 q 3.0959,0 5.3877,1.44743 2.2917,1.44743 3.2969,3.65877 v -4.78455 h 2.8144 v 22.51553 q 0,3.01547 -1.3268,5.34744 -1.2866,2.33196 -3.6186,3.57836 -2.3319,1.2866 -5.3072,1.2866 -4.2217,0 -7.0361,-2.01032 -2.7742,-2.01031 -3.4577,-5.46805 h 2.7742 q 0.7237,2.29176 2.734,3.65877 2.0505,1.36702 4.9856,1.36702 2.1309,0 3.8196,-0.92475 1.6887,-0.88454 2.6536,-2.65362 0.965,-1.76907 0.965,-4.18145 v -5.42785 q -1.0454,2.25155 -3.3372,3.73918 -2.2515,1.44743 -5.3474,1.44743 -3.0155,0 -5.4278,-1.40722 -2.3722,-1.40722 -3.7392,-3.98042 -1.3268,-2.57321 -1.3268,-5.95053 0,-3.37733 1.3268,-5.91033 1.367,-2.5732 3.7392,-3.94022 2.4123,-1.40722 5.4278,-1.40722 z m 8.6846,11.29797 q 0,-2.65361 -1.0856,-4.66393 -1.0856,-2.01031 -2.9753,-3.09588 -1.8495,-1.08557 -4.101,-1.08557 -2.332,0 -4.1815,1.04536 -1.8495,1.04536 -2.935,3.05568 -1.0454,1.97011 -1.0454,4.70414 0,2.69382 1.0454,4.74434 1.0855,2.01031 2.935,3.09588 1.8495,1.04537 4.1815,1.04537 2.2515,0 4.101,-1.08557 1.8897,-1.08557 2.9753,-3.09589 1.0856,-2.01031 1.0856,-4.66393 z"
           style="font-weight:500;font-family:Poppins;-inkscape-font-specification:'Poppins Medium'"
           id="path419" /><path
           d="m 6912.8796,428.44608 q 3.9402,0 6.433,2.45258 2.4928,2.41238 2.4928,7.03611 v 12.86601 h -2.7742 v -12.54436 q 0,-3.57836 -1.8093,-5.46806 -1.7691,-1.8897 -4.865,-1.8897 -3.1763,0 -5.066,2.01032 -1.8897,2.01031 -1.8897,5.91032 v 11.98148 h -2.8144 v -21.95264 h 2.8144 v 3.73919 q 1.0454,-2.01032 3.0155,-3.05568 1.9701,-1.08557 4.4629,-1.08557 z"
           style="font-weight:500;font-family:Poppins;-inkscape-font-specification:'Poppins Medium'"
           id="path416" /><path
           d="m 6959.7882,438.69869 q 0,1.44742 -0.081,2.21134 h -18.2134 q 0.1206,2.49279 1.2062,4.26187 1.0856,1.76908 2.8546,2.69382 1.7691,0.88454 3.8598,0.88454 2.7341,0 4.5836,-1.32681 1.8896,-1.32681 2.4927,-3.57836 h 2.9753 q -0.8041,3.21651 -3.4577,5.26703 -2.6134,2.01031 -6.5939,2.01031 -3.0958,0 -5.5484,-1.36701 -2.4526,-1.40722 -3.8598,-3.94022 -1.3671,-2.5732 -1.3671,-5.99074 0,-3.41753 1.3671,-5.99074 1.367,-2.5732 3.8196,-3.94021 2.4525,-1.36702 5.5886,-1.36702 3.1361,0 5.4681,1.36702 2.3722,1.36701 3.6186,3.69898 1.2866,2.29175 1.2866,5.1062 z m -2.8547,-0.0804 q 0.04,-2.45258 -1.0051,-4.18145 -1.0052,-1.72887 -2.7743,-2.61341 -1.7691,-0.88454 -3.8598,-0.88454 -3.1361,0 -5.3474,2.01031 -2.2114,2.01032 -2.4526,5.66909 z"
           style="font-weight:500;font-family:Poppins;-inkscape-font-specification:'Poppins Medium'"
           id="path413" /><path
           d="m 6979.6379,432.74815 q 0.9248,-2.05052 2.8144,-3.17629 1.9299,-1.12578 4.7042,-1.12578 v 2.93506 h -0.7639 q -3.0557,0 -4.9052,1.64846 -1.8495,1.64846 -1.8495,5.50826 v 12.26292 h -2.8144 v -21.95264 h 2.8144 z"
           style="font-weight:500;font-family:Poppins;-inkscape-font-specification:'Poppins Medium'"
           id="path410" /></g><path
         id="path407"
         style="font-weight:600;font-size:56.9549px;line-height:1.2;font-family:'Josefin Sans';-inkscape-font-specification:'Josefin Sans Semi-Bold';text-align:end;letter-spacing:-3.18px;text-anchor:end;fill:#ff634a;stroke-width:13.0999;stroke-linecap:round;stroke-linejoin:round"
         d="m 6569.885,342.93946 c -5.1024,0 -9.9088,0.99126 -14.4147,2.97919 -4.4397,1.92162 -8.3494,4.60517 -11.7289,8.05085 -3.3795,3.44586 -6.0271,7.39135 -7.9487,11.83108 -1.9217,4.43974 -2.8836,9.17771 -2.8836,14.21377 0,5.16853 0.9619,10.00423 2.8836,14.51011 1.9216,4.43973 4.5692,8.34928 7.9487,11.72881 3.3795,3.31322 7.2892,5.93169 11.7289,7.8533 4.4397,1.85547 9.2461,2.78148 14.4147,2.78148 5.0362,0 9.7738,-0.92601 14.2135,-2.78148 4.5059,-1.92161 8.4481,-4.57272 11.8276,-7.95208 3.4457,-3.37953 6.1294,-7.28909 8.051,-11.72881 1.988,-4.50605 2.9825,-9.30913 2.9825,-14.41133 0,-5.03606 -0.9945,-9.77403 -2.9825,-14.21377 -1.9216,-4.43973 -4.6053,-8.38522 -8.051,-11.83108 -3.3795,-3.44568 -7.3217,-6.12923 -11.8276,-8.05085 -4.4397,-1.98793 -9.1773,-2.97919 -14.2135,-2.97919 z m 200.4397,0 c -5.1024,0 -9.9055,0.99126 -14.4113,2.97919 -4.4398,1.92162 -8.3493,4.60517 -11.7288,8.05085 -3.3796,3.44586 -6.0307,7.39135 -7.9524,11.83108 -1.9215,4.43974 -2.8835,9.17771 -2.8835,14.21377 0,5.16853 0.962,10.00423 2.8835,14.51011 1.9217,4.43973 4.5728,8.34928 7.9524,11.72881 3.3795,3.31322 7.289,5.93169 11.7288,7.8533 4.4395,1.85547 9.2425,2.78148 14.4113,2.78148 5.036,0 9.7738,-0.92601 14.2135,-2.78148 4.5059,-1.92161 8.4483,-4.57272 11.8279,-7.95208 3.4457,-3.37953 6.1292,-7.28909 8.0508,-11.72881 1.9879,-4.50605 2.9825,-9.30913 2.9825,-14.41133 0,-5.03606 -0.9946,-9.77403 -2.9825,-14.21377 -1.9216,-4.43973 -4.6051,-8.38522 -8.0508,-11.83108 -3.3796,-3.44568 -7.322,-6.12923 -11.8279,-8.05085 -4.4397,-1.98793 -9.1775,-2.97919 -14.2135,-2.97919 z m -87.2861,0.79424 v 11.1323 h 18.1879 v 61.2278 h 11.5311 V 354.866 h 18.6857 v -11.1323 z m 134.2184,0 v 72.3601 h 22.5612 c 3.1807,0 6.2294,-0.36526 9.145,-1.09423 2.9157,-0.7951 5.5341,-2.02108 7.8533,-3.67779 2.3193,-1.65651 4.142,-3.77602 5.4673,-6.36029 1.3914,-2.65058 2.086,-5.86572 2.086,-9.64279 2e-4,-4.04219 -1.2259,-7.52138 -3.6778,-10.43705 -2.2516,-2.81462 -5.3299,-4.98667 -9.1757,-6.56134 2.6769,-1.5108 4.8641,-3.44725 6.4932,-5.86275 1.9216,-2.91567 2.8802,-6.42748 2.8802,-10.5358 0,-6.16257 -2.1519,-10.73424 -6.4592,-13.71605 -4.2409,-2.98199 -10.0384,-4.47202 -17.3938,-4.47202 z m 57.0692,0 v 72.3601 h 49.4002 v -11.13231 h -37.7701 v -19.68106 h 32.4017 v -11.1323 h -32.4017 V 354.866 h 36.3794 v -11.1323 z m 59.8542,0 v 72.3601 h 11.6265 v -25.14836 h 10.4371 c 0.4023,0 0.7676,-0.0349 1.1588,-0.0436 l 16.3373,25.19268 h 13.416 l -17.595,-28.00119 c 2.4863,-1.32772 4.5598,-2.91584 6.166,-4.79924 1.988,-2.31933 3.4131,-4.90517 4.2745,-7.75452 0.8614,-2.84935 1.2918,-5.69923 1.2918,-8.54857 0,-3.71077 -0.6619,-6.98786 -1.9872,-9.83722 -1.259,-2.91549 -3.049,-5.36764 -5.3683,-7.35557 -2.3192,-1.98793 -5.1367,-3.48145 -8.4498,-4.47551 -3.3133,-1.06019 -6.9554,-1.58828 -10.9314,-1.58828 z m -364.2954,10.33808 c 3.5121,0 6.7923,0.66195 9.8403,1.98723 3.0483,1.32529 5.6994,3.18059 7.9522,5.56625 2.2531,2.38548 4.0397,5.13413 5.3651,8.24858 1.3253,3.11443 1.9905,6.49589 1.9905,10.14051 0,3.57815 -0.6652,6.92364 -1.9905,10.0381 -1.259,3.11445 -3.0133,5.86326 -5.2663,8.24874 -2.253,2.31917 -4.904,4.14201 -7.9521,5.46731 -2.9818,1.32528 -6.1969,1.98723 -9.6426,1.98723 -3.5783,0 -6.8912,-0.66195 -9.9394,-1.98723 -3.0481,-1.3253 -5.7317,-3.14814 -8.0509,-5.46731 -2.3194,-2.38547 -4.1421,-5.13429 -5.4674,-8.24874 -1.259,-3.11446 -1.8883,-6.45995 -1.8883,-10.0381 0,-3.57831 0.6293,-6.92731 1.8883,-10.04156 1.259,-3.18077 3.0166,-5.96205 5.2696,-8.34753 1.3075,-1.34501 2.7309,-2.52143 4.2701,-3.52928 0.5108,-0.33437 1.0343,-0.65043 1.5705,-0.94763 0.7142,-0.39597 1.451,-0.75915 2.2104,-1.08934 3.0482,-1.32528 6.3285,-1.98723 9.8405,-1.98723 z m 200.4397,0 c 3.5119,0 6.7922,0.66195 9.8403,1.98723 3.0482,1.32529 5.6993,3.18059 7.9523,5.56625 2.2528,2.38548 4.0397,5.13413 5.365,8.24858 1.3253,3.11443 1.9905,6.49589 1.9905,10.14051 0,3.57815 -0.6652,6.92364 -1.9905,10.0381 -1.259,3.11445 -3.0132,5.86326 -5.2663,8.24874 -2.253,2.31917 -4.9039,4.14201 -7.9521,5.46731 -2.9819,1.32528 -6.197,1.98723 -9.6427,1.98723 -3.5783,0 -6.8912,-0.66195 -9.9393,-1.98723 -3.0481,-1.3253 -5.7319,-3.14814 -8.0511,-5.46731 -2.3193,-2.38547 -4.142,-5.13429 -5.4673,-8.24874 -1.2589,-3.11446 -1.8882,-6.45995 -1.8882,-10.0381 0,-3.57831 0.6293,-6.92731 1.8882,-10.04156 1.2591,-3.18077 3.0168,-5.96205 5.2696,-8.34753 2.3193,-2.38566 5.0029,-4.24096 8.0511,-5.56625 3.0481,-1.32528 6.3284,-1.98723 9.8405,-1.98723 z m 58.5622,0.79423 h 8.6475 c 3.512,0 6.2933,0.76299 8.3475,2.28723 2.0543,1.52406 3.0813,3.94008 3.0813,7.2533 0,2.7169 -0.828,5.10377 -2.4848,7.15801 -1.5903,1.98794 -4.1402,2.98234 -7.6522,2.98234 h -9.9393 z m 116.92,0 h 10.7371 c 2.5181,0 4.6046,0.43036 6.2613,1.29178 1.6567,0.86142 2.9482,1.95373 3.8755,3.27902 0.9941,1.25914 1.692,2.61881 2.0895,4.07673 0.3976,1.3916 0.5966,2.68268 0.5966,3.8755 0,1.25897 -0.2349,2.61883 -0.6988,4.07657 -0.3975,1.39161 -1.0922,2.71532 -2.0861,3.97447 -0.9276,1.25896 -2.2514,2.31864 -3.9743,3.18006 -1.7227,0.79528 -3.8782,1.193 -6.4626,1.193 h -10.3382 z m -116.92,30.81336 h 9.6395 c 2.3193,0 4.5399,0.29651 6.6603,0.89301 2.1205,0.59634 3.8746,1.59092 5.266,2.98251 1.3917,1.39144 2.0895,3.34464 2.0895,5.86256 0,2.25304 -0.5967,4.14446 -1.7895,5.66852 -1.1928,1.45775 -2.7841,2.55006 -4.772,3.27901 -1.9879,0.66265 -4.2085,0.99528 -6.6603,0.99528 h -10.4335 z"
         sodipodi:nodetypes="scssscccscccscccsscssscccscccscccscccccccccccscscscccscsccccccccccccccccccscccccsscscscssssscccssccsccssssssssscccssccsccsscssscscccssccscccscccssssccscc" /><g
         id="g183"
         transform="matrix(0.23635558,0,0,0.23635558,6311.6916,286.06384)"><path
           d="M 470.03125,665.97461 516.2168,566.92969 379.16406,273.01953 c -1.47069,3.03754 -2.95997,6.06509 -4.34179,9.15234 -2.02847,4.53197 -3.95992,9.11873 -5.79688,13.75782 -1.83696,4.63908 -3.57915,9.33192 -5.22461,14.07812 -1.64545,4.74621 -3.19449,9.54512 -4.64844,14.39844 -1.45394,4.85332 -2.81177,9.76026 -4.07422,14.7207 -1.26244,4.96045 -2.42906,9.97541 -3.5,15.04297 -1.07093,5.06756 -2.04635,10.1886 -2.92578,15.36328 -0.87943,5.17468 -1.66363,10.4018 -2.35156,15.6836 -0.68792,5.2818 -1.28092,10.61694 -1.77734,16.00586 -0.49642,5.38892 -0.88306,10.71699 -1.16016,15.98437 -0.27709,5.26738 -0.44418,10.47525 -0.50195,15.62109 -0.0578,5.14585 -0.005,10.22961 0.15625,15.25391 0.16155,5.0243 0.43358,9.98786 0.81445,14.89063 0.38087,4.90276 0.87051,9.74612 1.4707,14.52734 0.6002,4.78122 1.30939,9.50047 2.12891,14.16016 0.81952,4.65968 1.75022,9.25873 2.78906,13.79687 1.03884,4.53815 2.18715,9.01503 3.44532,13.43164 1.25816,4.41661 2.62603,8.77329 4.10351,13.06836 1.47749,4.29507 3.06296,8.5296 4.75977,12.70313 1.6968,4.17353 3.50379,8.2859 5.41992,12.33789 1.91613,4.05199 3.94267,8.04416 6.07812,11.97461 2.13546,3.93045 4.3796,7.80046 6.73438,11.60937 2.35477,3.80891 4.82043,7.55677 7.39453,11.24414 2.5741,3.68737 5.25736,7.31307 8.05078,10.87891 2.79342,3.56583 5.69624,7.07133 8.70899,10.51562 3.02986,3.42782 6.11315,6.74932 9.25,9.96289 3.13684,3.21358 6.32843,6.31903 9.57226,9.31836 3.24384,2.99934 6.5398,5.89069 9.89063,8.67578 3.35082,2.7851 6.75508,5.4643 10.21289,8.03516 3.45781,2.57086 6.97036,5.034 10.53515,7.39063 3.5648,2.35662 7.18174,4.60566 10.85352,6.74804 1.57721,0.92026 3.20382,1.74232 4.80078,2.62305 z"
           style="font-size:825.55px;line-height:1.2;font-family:Helsinki;-inkscape-font-specification:Helsinki;text-align:end;letter-spacing:562.874px;text-orientation:upright;text-anchor:end;fill:#ff7548;fill-opacity:1;stroke-width:1.79229;stroke-linecap:round;stroke-linejoin:round"
           id="path404" /><path
           d="m 541.72852,114.43945 92.74414,198.88867 94.25781,-202.13476 c -3.36291,-1.31905 -6.74927,-2.59364 -10.20313,-3.74609 -3.98204,-1.32869 -8.02597,-2.54706 -12.1289,-3.6543 -4.10294,-1.10724 -8.2664,-2.10444 -12.49024,-2.99024 -4.22383,-0.885789 -8.50683,-1.659869 -12.85156,-2.324214 -4.34473,-0.664345 -8.75117,-1.219213 -13.2168,-1.66211 -4.46562,-0.442896 -8.9916,-0.774645 -13.57812,-0.996094 -4.58652,-0.221448 -9.23204,-0.332031 -13.93945,-0.332031 -4.70742,0 -9.3799,0.114062 -14.01563,0.34375 -4.63573,0.229689 -9.23478,0.57578 -13.79883,1.035156 -4.56405,0.459377 -9.09357,1.033592 -13.58594,1.722657 -4.49236,0.689065 -8.94845,1.491406 -13.36914,2.410156 -4.42068,0.91875 -8.80529,1.95312 -13.15429,3.10156 -4.34901,1.14844 -8.66213,2.41094 -12.93946,3.78907 -4.27732,1.37812 -8.51896,2.87265 -12.72461,4.48046 -1.68295,0.6434 -3.33438,1.38819 -5.00585,2.06836 z"
           style="font-size:825.55px;line-height:1.2;font-family:Helsinki;-inkscape-font-specification:Helsinki;text-align:end;letter-spacing:562.874px;text-orientation:upright;text-anchor:end;fill:#ffad5b;fill-opacity:1;stroke-width:1.79229;stroke-linecap:round;stroke-linejoin:round"
           id="path401" /><path
           d="M 749.33789,120.6582 625.83398,385.51172 h 249.05664 c 0.13077,-1.84966 0.31947,-3.73281 0.42579,-5.56836 0.30812,-5.31991 0.51252,-10.57979 0.61523,-15.78125 0.10271,-5.20146 0.10271,-10.34472 0,-15.42774 -0.10271,-5.08301 -0.30711,-10.10574 -0.61523,-15.07031 -0.30813,-4.96456 -0.71889,-9.87068 -1.23243,-14.71679 -0.51353,-4.84612 -1.13065,-9.63171 -1.84961,-14.35938 -0.71895,-4.72766 -1.54047,-9.39664 -2.46484,-14.00586 -0.92436,-4.60921 -1.95225,-9.15962 -3.08203,-13.65039 -1.12978,-4.49077 -2.36207,-8.9226 -3.69727,-13.29492 -1.33519,-4.37232 -2.77189,-8.68559 -4.3125,-12.93945 -1.5406,-4.25387 -3.18366,-8.44857 -4.92968,-12.58399 -1.74603,-4.13542 -3.59544,-8.21154 -5.54688,-12.22851 -1.95143,-4.01697 -4.00526,-7.97453 -6.16211,-11.87305 -2.15685,-3.89852 -4.41703,-7.73751 -6.77929,-11.51758 -2.36227,-3.78007 -4.82686,-7.50049 -7.39454,-11.16211 -2.56767,-3.66162 -5.23862,-7.26347 -8.01171,-10.80664 -2.7731,-3.54317 -5.60602,-6.9771 -8.5,-10.29883 -2.89399,-3.32172 -5.8484,-6.53253 -8.86329,-9.63281 -3.01488,-3.10028 -6.09078,-6.08992 -9.22656,-8.96875 -3.13578,-2.87883 -6.33122,-5.64731 -9.58789,-8.30469 -3.25667,-2.65738 -6.5736,-5.20274 -9.95117,-7.63867 -3.37757,-2.43593 -6.81599,-4.76208 -10.31445,-6.97656 -3.49847,-2.21449 -7.05838,-4.31751 -10.67774,-6.31055 -1.11296,-0.61286 -2.27014,-1.1444 -3.39453,-1.73633 z"
           style="font-size:825.55px;line-height:1.2;font-family:Helsinki;-inkscape-font-specification:Helsinki;text-align:end;letter-spacing:562.874px;text-orientation:upright;text-anchor:end;fill:#ff7865;fill-opacity:1;stroke-width:1.79229;stroke-linecap:round;stroke-linejoin:round"
           id="path398" /><path
           d="m 392.56641,248.09961 136.16211,292 L 621.96094,340.1582 521.09375,123.84766 c -3.77651,1.93891 -7.52778,3.95583 -11.24219,6.09375 -3.9906,2.29688 -7.94631,4.7078 -11.86523,7.23437 -3.91892,2.52657 -7.8012,5.16952 -11.64844,7.92578 -3.84724,2.75626 -7.65999,5.62734 -11.43555,8.61328 -3.77555,2.98595 -7.51487,6.0871 -11.21875,9.30274 -3.70387,3.21563 -7.37171,6.54491 -11.0039,9.99023 -3.6322,3.44533 -7.22855,7.00663 -10.78907,10.68164 -3.56051,3.67502 -7.02552,7.40342 -10.39453,11.18555 -3.36901,3.78213 -6.64085,7.61661 -9.81836,11.50586 -3.1775,3.88925 -6.26009,7.83175 -9.24609,11.82812 -2.986,3.99637 -5.87543,8.04691 -8.66992,12.15039 -2.79449,4.10349 -5.49467,8.2601 -8.09766,12.47071 -1.07214,1.73431 -2.058,3.51704 -3.09765,5.26953 z"
           style="font-size:825.55px;line-height:1.2;font-family:Helsinki;-inkscape-font-specification:Helsinki;text-align:end;letter-spacing:562.874px;text-orientation:upright;text-anchor:end;fill:#ffa06e;fill-opacity:1;stroke-width:1.79229;stroke-linecap:round;stroke-linejoin:round"
           id="path395" /><path
           d="M 872.73047,408.18945 H 615.25977 L 490.4043,675.94141 c 3.08152,1.31557 6.16837,2.61838 9.3164,3.80078 3.99274,1.49967 8.03895,2.8923 12.13867,4.17773 4.09973,1.28543 8.25423,2.46397 12.46094,3.53516 4.20672,1.07119 8.4656,2.03367 12.7793,2.89062 4.3137,0.85696 8.68087,1.60729 13.10156,2.25 4.42069,0.64272 8.89616,1.17895 13.42383,1.60742 4.52767,0.42848 9.10948,0.74866 13.74414,0.9629 4.63466,0.21423 9.32281,0.32226 14.06445,0.32226 4.75877,0 9.47015,-0.10966 14.13477,-0.33008 4.66462,-0.22042 9.28109,-0.55135 13.85156,-0.99218 4.57047,-0.44084 9.09399,-0.99305 13.57031,-1.6543 4.47633,-0.66126 8.90689,-1.43278 13.28907,-2.31445 4.38217,-0.88168 8.71588,-1.87252 13.0039,-2.97461 4.28803,-1.1021 8.52878,-2.31421 12.72266,-3.63672 4.19388,-1.32251 8.34168,-2.7559 12.44141,-4.29883 4.09972,-1.54293 8.15262,-3.19564 12.1582,-4.95899 4.00558,-1.76334 7.96357,-3.63732 11.875,-5.62109 3.91143,-1.98376 7.77647,-4.07707 11.59375,-6.28125 3.81728,-2.20418 7.58741,-4.51876 11.31055,-6.94336 3.72313,-2.4246 7.39835,-4.96045 11.02734,-7.60547 3.62899,-2.64502 7.21125,-5.40018 10.74609,-8.26562 3.53484,-2.86544 7.0222,-5.83993 10.46289,-8.92578 3.44069,-3.08586 6.8351,-6.28162 10.18164,-9.58789 3.34655,-3.30628 6.64605,-6.72331 9.89844,-10.25 3.2524,-3.5267 6.41879,-7.11267 9.5,-10.75782 3.08122,-3.64514 6.07629,-7.34969 8.98633,-11.11328 2.91004,-3.76359 5.73575,-7.58671 8.47461,-11.46875 2.73886,-3.88204 5.3913,-7.82373 7.95898,-11.82422 2.56768,-4.00049 5.05077,-8.05879 7.44727,-12.17773 2.3965,-4.11894 4.70632,-8.29777 6.93164,-12.53516 2.22532,-4.23739 4.36578,-8.53478 6.41992,-12.89062 2.05415,-4.35584 4.02133,-8.76986 5.9043,-13.24414 1.88296,-4.47429 3.68079,-9.00883 5.39258,-13.60157 1.71178,-4.59273 3.3383,-9.24389 4.8789,-13.95507 1.54061,-4.71119 2.99581,-9.48092 4.36524,-14.31055 1.36943,-4.82963 2.65331,-9.71989 3.85156,-14.66797 1.19825,-4.94808 2.31082,-9.95495 3.33789,-15.02148 1.02707,-5.06654 1.96833,-10.19197 2.82422,-15.37696 0.85589,-5.18498 1.62583,-10.42899 2.31055,-15.73242 0.16941,-1.31218 0.28637,-2.66103 0.44531,-3.98047 z"
           style="font-size:825.55px;line-height:1.2;font-family:Helsinki;-inkscape-font-specification:Helsinki;text-align:end;letter-spacing:562.874px;text-orientation:upright;text-anchor:end;fill:#fe5442;fill-opacity:1;stroke-width:1.79229;stroke-linecap:round;stroke-linejoin:round"
           id="path392" /></g><path
         d="m 1039.1509,571.77407 c -0.056,0.0164 -0.1125,0.0331 -0.1685,0.0501 -0.655,0.19934 -1.2953,0.43148 -1.9219,0.69726 -0.6265,0.26579 -1.2326,0.55854 -1.8164,0.87891 -0.5837,0.32037 -1.1464,0.66802 -1.6875,1.04297 -0.541,0.37495 -1.0602,0.7775 -1.5586,1.20703 -0.4983,0.42954 -0.974,0.88698 -1.4296,1.37109 -0.2272,0.23661 -0.4324,0.49243 -0.6465,0.74024 -0.1786,0.20663 -0.3695,0.40277 -0.5391,0.61719 -0.3729,0.47157 -0.7234,0.96144 -1.0527,1.4707 -0.3293,0.50926 -0.6362,1.039 -0.9219,1.58594 -0.2856,0.54694 -0.5509,1.11264 -0.793,1.69726 -0.083,0.20068 -0.1622,0.4023 -0.2402,0.60742 -0.01,0.0192 -0.012,0.0393 -0.022,0.0586 -0.2468,0.65497 -0.4633,1.32547 -0.6484,2.01367 -0.1851,0.6882 -0.3395,1.3938 -0.4629,2.11523 -0.1234,0.72143 -0.2157,1.46019 -0.2774,2.21485 -0.062,0.75465 -0.094,1.52462 -0.094,2.3125 0,0.70244 0.03,1.39662 0.09,2.08008 0.059,0.68345 0.149,1.35701 0.2676,2.02148 0.1187,0.66447 0.2654,1.31936 0.4434,1.96484 0.178,0.64549 0.3857,1.28171 0.623,1.90821 0.2468,0.61701 0.5198,1.21699 0.8164,1.80078 0.2967,0.58379 0.6184,1.15061 0.9649,1.70117 0.3464,0.55056 0.7169,1.08422 1.1133,1.60156 0.3963,0.51734 0.8175,1.01979 1.2636,1.50391 0.4462,0.47462 0.9181,0.9244 1.4141,1.35156 0.496,0.42716 1.0167,0.83124 1.5625,1.21094 0.5458,0.3797 1.1153,0.73612 1.7109,1.06836 0.5957,0.33223 1.2178,0.63905 1.8633,0.92383 0.6455,0.27529 1.3103,0.51772 1.9961,0.72656 0.6858,0.20884 1.391,0.38495 2.1172,0.52734 0.7262,0.14239 1.4737,0.25219 2.2402,0.32813 0.7665,0.0759 1.5525,0.11748 2.3594,0.12695 1.0062,0.019 1.9657,-0.0184 2.877,-0.11328 0.9112,-0.0949 1.7754,-0.24624 2.5917,-0.45508 0.8354,-0.22782 1.6084,-0.47444 2.3204,-0.74023 0.7119,-0.26579 1.3626,-0.55171 1.9511,-0.85547 1.215,-0.60751 2.125,-1.11944 2.7325,-1.53711 l -2.7891,-5.92383 c -0.4936,0.41767 -1.0677,0.81561 -1.7227,1.19531 -0.655,0.3797 -1.3906,0.74031 -2.207,1.08203 -0.3987,0.16138 -0.8142,0.3028 -1.2461,0.42383 -0.4319,0.12103 -0.8806,0.22205 -1.3457,0.30274 -0.9302,0.16137 -1.9271,0.24219 -2.9902,0.24219 -0.5411,0 -1.069,-0.0213 -1.584,-0.0664 -0.515,-0.0451 -1.017,-0.11295 -1.5059,-0.20313 -0.4888,-0.0902 -0.9649,-0.20262 -1.4277,-0.33789 -0.4628,-0.13526 -0.913,-0.29425 -1.3496,-0.47461 -0.8544,-0.3797 -1.6522,-0.82529 -2.3926,-1.33789 -0.3702,-0.25629 -0.7247,-0.52884 -1.0664,-0.81836 -0.3417,-0.28952 -0.6692,-0.59717 -0.9824,-0.91992 -0.3038,-0.33224 -0.5908,-0.67988 -0.8613,-1.04297 -0.2706,-0.36308 -0.5245,-0.74083 -0.7618,-1.13476 -0.2373,-0.39394 -0.458,-0.80373 -0.6621,-1.22852 -0.2041,-0.42479 -0.3916,-0.86467 -0.5625,-1.32031 -0.1614,-0.45564 -0.3028,-0.92144 -0.4238,-1.39844 -0.121,-0.477 -0.222,-0.96453 -0.3027,-1.46289 -0.1614,-0.99671 -0.2422,-2.037 -0.2422,-3.11914 0,-0.52209 0.021,-1.03401 0.066,-1.53711 0.045,-0.5031 0.1129,-0.99635 0.2031,-1.48047 0.09,-0.48411 0.2046,-0.95869 0.3398,-1.42383 0.1353,-0.46513 0.2923,-0.92104 0.4727,-1.36718 0.3797,-0.8923 0.8211,-1.72748 1.3242,-2.50586 0.5031,-0.77838 1.0669,-1.49959 1.6934,-2.16407 0.3132,-0.34172 0.6411,-0.66345 0.9805,-0.96484 0.3393,-0.30138 0.6911,-0.58271 1.0566,-0.84375 0.3654,-0.26104 0.7432,-0.50195 1.1348,-0.72265 0.3915,-0.22071 0.7971,-0.42121 1.2148,-0.60157 0.4177,-0.18985 0.8404,-0.35566 1.2676,-0.49804 0.3652,-0.12179 1.096,-0.18555 1.6192,-0.18555 h 5.9374 6.9903 1.4433 v -3.41797 -2.96094 h -7.5976 l -7.4894,-1e-5 c -0.9158,0 -2.3899,0.13538 -3.2689,0.39126 z"
         style="font-weight:600;font-size:56.9549px;line-height:1.2;font-family:'Josefin Sans';-inkscape-font-specification:'Josefin Sans Semi-Bold';text-align:end;letter-spacing:-3.18px;text-anchor:end;fill:#ff634a;stroke-width:7.50637;stroke-linecap:round;stroke-linejoin:round"
         id="path389"
         transform="matrix(1.7451772,0,0,1.7451772,4826.3448,-653.43049)" /></g></g></svg>
