<?xml version="1.0" encoding="UTF-8"?>
<svg id="Capa_2" data-name="Capa 2" xmlns="http://www.w3.org/2000/svg" viewBox="0 0 89.96 80.16">
  <defs>
    <style>
      .cls-1 {
        fill: #ff7548;
      }
    </style>
  </defs>
  <g id="Graphic_Elements" data-name="Graphic Elements">
    <path class="cls-1" d="m89.96,40.78c0-5.44-4.41-9.84-9.84-9.84-2.65,0-5.06,1.06-6.83,2.76-6.73-4.86-16-7.99-26.33-8.35l4.48-21.1,14.65,3.11c.18,3.72,3.23,6.7,7,6.7s7.03-3.15,7.03-7.03-3.15-7.03-7.03-7.03c-2.76,0-5.13,1.61-6.28,3.92L50.46.45c-.46-.1-.93,0-1.32.25-.39.25-.67.65-.76,1.11l-5.01,23.54c-10.48.29-19.9,3.43-26.71,8.34-1.77-1.7-4.16-2.74-6.81-2.74-5.44,0-9.84,4.41-9.84,9.84,0,4,2.39,7.44,5.82,8.98-.15.98-.23,1.97-.23,2.98,0,15.14,17.63,27.42,39.38,27.42s39.38-12.28,39.38-27.42c0-1-.08-1.99-.23-2.96,3.45-1.53,5.86-4.98,5.86-9Zm-67.49,7.03c0-3.88,3.16-7.03,7.03-7.03s7.03,3.15,7.03,7.03-3.15,7.03-7.03,7.03-7.03-3.15-7.03-7.03Zm39.21,18.58c-4.8,4.79-13.99,5.16-16.7,5.16s-11.9-.37-16.69-5.17c-.71-.71-.71-1.87,0-2.58.71-.71,1.87-.71,2.58,0,3.02,3.02,9.5,4.1,14.12,4.1s11.09-1.07,14.12-4.1c.71-.71,1.87-.71,2.58,0,.71.71.71,1.87,0,2.58Zm-1.24-11.55c-3.88,0-7.03-3.15-7.03-7.03s3.15-7.03,7.03-7.03,7.03,3.16,7.03,7.03-3.15,7.03-7.03,7.03Z"/>
  </g>
</svg>